<svg
      xmlns="http://www.w3.org/2000/svg"
      width="57.693"
      height="26.174"
      version="1.1"
      viewBox="0 0 15.264 6.925"
    >
      <defs>
        <clipPath clipPathUnits="userSpaceOnUse">
          <path d="M0 841.89h595.276V0H0z"></path>
        </clipPath>
      </defs>
      <g transform="translate(-5.351 -69.643)">
        <g
          fillOpacity="1"
          fillRule="nonzero"
          stroke="none"
          strokeWidth="0.353"
          transform="translate(.132 -.132)"
        >
          <path
            fill="#FFCB9A"
            d="M6.88 76.568c-.834 0-1.319-.103-1.448-.192-.078-.054-.113-.1-.044-.566.035-.239.17-.555.365-.483.21.078 1.922.401 1.922-.27 0-.732-2.205-.477-2.205-2.359 0-.843.365-1.489 1.953-1.489.941 0 1.256.164 1.341.2.096.04.137.166.074.575-.045.298-.207.475-.337.435-.352-.11-1.748-.28-1.748.253 0 .732 2.204.487 2.204 2.404 0 .876-.388 1.492-2.076 1.492m11.384-.678c-.014.303-.08.588-.163.588h-2.756c-.44 0-.52-.098-.52-.18V71.44c0-.15.334-.202.71-.222.386-.02.597.015.597.198v3.856c0 .038.027.045.045.045h1.894c.18 0 .21.174.193.573m-6.38-4.6H9.793c-.195 0-.196.176-.196.176v4.846c0 .152.133.166.295.166h1.859c1.514 0 2.316-.533 2.316-1.944v-1.359c0-1.532-1.077-1.884-2.18-1.884m.836 3.125c0 .69-.382.893-.955.893h-.856c-.006 0-.008-.004-.008-.012v-2.844c0-.005.002-.006.008-.006h.871c.544 0 .94.261.94.808z"
          ></path>
          <path
            fill="#FFCB9A"
            d="M18.63 71.798l.124-.148.124-.147a.104.104 0 01.072-.038.105.105 0 01.078.025l.586.492.587.492a.104.104 0 01.037.072.104.104 0 01-.024.078l-.124.147-.124.148a.107.107 0 01-.15.013l-.586-.492-.587-.492a.108.108 0 01-.013-.15"
          ></path>
          <path
            fill="#FFCB9A"
            d="M17.922 73.195l.178.072.179.073c.027.01.056.01.081-.001a.106.106 0 00.057-.058l.287-.71.287-.71a.107.107 0 00-.059-.139l-.178-.072-.179-.072a.107.107 0 00-.138.059l-.287.71-.287.71a.107.107 0 00.059.138"
          ></path>
          <path
            fill="#FFCB9A"
            d="M18.94 71.604l-.186.046-.187.047a.107.107 0 01-.13-.078l-.184-.743-.186-.742a.106.106 0 01.078-.13l.187-.046.187-.047a.106.106 0 01.08.012.106.106 0 01.049.066l.185.743.185.742a.107.107 0 01-.077.13"
          ></path>
          <path
            fill="#FFCB9A"
            d="M20.335 70.889l-.102-.163-.104-.166a.107.107 0 00-.147-.034l-.649.405-.65.406a.107.107 0 00-.034.147l.105.166.102.163a.105.105 0 00.147.034l.649-.406.65-.405a.107.107 0 00.034-.147"
          ></path>
          <path
            fill="#FFCB9A"
            d="M18.767 71.458l-.013.192-.014.192a.105.105 0 01-.036.073.105.105 0 01-.078.026l-.763-.053-.764-.054a.107.107 0 01-.099-.113l.013-.193.014-.192a.106.106 0 01.114-.098l.764.053.763.053c.03.002.055.016.073.037.018.02.028.048.026.077"
          ></path>
        </g>
      </g>
    </svg>